<svg xmlns="http://www.w3.org/2000/svg" viewBox="0 0 775.95 775.95"><defs><style>.cls-1{fill:#fff;}</style></defs><g id="圖層_2" data-name="圖層 2"><g id="favicon"><rect class="cls-1" width="775.95" height="775.95" rx="92.76"/><polygon points="211.59 89.14 563.73 89.14 738.2 388.43 563.18 691.67 456.93 691.67 437.6 661.01 457.93 625.15 526.6 625.15 663.17 388.43 522.98 153.72 507.54 153.72 507.54 289.3 566.65 390.61 422.55 639.41 375.38 564.41 375.67 440.74 410.12 440.74 410.12 562.31 421.28 579.9 531.27 392.11 476.4 300.01 476.4 153.72 248.31 153.72 111.47 388.43 261.52 628.05 354.13 628.05 215.06 391.58 274.73 289.3 274.73 176.02 302.74 176.02 302.74 294.47 247.98 390.61 425 691.67 214.61 691.67 35.38 388.43 211.59 89.14"/><ellipse cx="392.98" cy="387.98" rx="56.87" ry="55.7"/><circle class="cls-1" cx="392.98" cy="387.98" r="24.11"/></g></g></svg>