<svg xmlns="http://www.w3.org/2000/svg" xmlns:xlink="http://www.w3.org/1999/xlink" viewBox="0 0 731.3 235"><defs><style>.cls-1{fill:none;stroke:#fff;}.cls-1,.cls-4{stroke-miterlimit:10;}.cls-2,.cls-4{fill:#fff;}.cls-3{clip-path:url(#clip-path);}.cls-4{stroke:#191212;stroke-width:2.03px;}</style><clipPath id="clip-path"><path class="cls-1" d="M595.27,183.26c-2.06.24-4.13.38-6.19.51-5.59.35-11.17,1-16.75.94-9.87,0-18.07-3.43-22.62-13.18,0-.09-.14-.15-.21-.22-8.39,4.3-14,1.92-19.91-5-.66.84-1.16,1.52-1.7,2.15-3.82,4.41-5.7,9.78-7.22,15.31a35.12,35.12,0,0,0-1.32,8.77c0,1.13.29,1.84,1.58,1.73.72-.06,1.45,0,2.17,0,13.17.13,26.33.06,39.49.41,10.78.28,21.56.38,32.34.54,2.39,0,2.36,0,2.62-2.31a39.85,39.85,0,0,0-.39-8.24C597.05,183.46,596.44,183.12,595.27,183.26Z"/></clipPath></defs><g id="圖層_2" data-name="圖層 2"><g id="圖層_1-2" data-name="圖層 1"><rect width="730.29" height="235" rx="12.38"/><path class="cls-2" d="M638.92,119.45a36.14,36.14,0,0,1-13.75-5.8c-4.14-3-7.32-6.72-8.67-11.71-1.79-6.6,0-12.51,4-17.78,3.88-5,9.09-8.2,14.92-10.48,8.64-3.37,17.61-3.72,26.68-2.62a39.42,39.42,0,0,1,17.52,6c5.15,3.44,9.13,7.84,10.38,14.1,1.06,5.28.43,10.25-3.16,14.69-3.73,4.61-9.58,4.36-13,2.69-4-1.94-6-6.56-4.9-11.44a19.44,19.44,0,0,1,4.67-8.8c1.17-1.3,1.18-1.39,0-2.75a21,21,0,0,0-15-7.47,24.79,24.79,0,0,0-17.74,5.27c-5.12,4-7.76,9.23-7.17,15.86a14.15,14.15,0,0,0,3.33,7.82,21.77,21.77,0,0,0,15.09,7.91,47,47,0,0,0,5,.27c1.24,0,1.73.59,1.72,1.76s0,2.4,0,3.6c-.07,2-.48,2.39-2.45,2.37a29.09,29.09,0,0,0-9,1.14,23.29,23.29,0,0,0-10.62,6.69A17.39,17.39,0,0,0,635,152.08a22.8,22.8,0,0,0,17.77,10.83c10.13,1,19.08-2.1,26.9-8.55a24.58,24.58,0,0,0,6.34-7.73c.86-1.68,1.19-1.83,2.74-.87,4.69,2.91,4.67,1.79,1.84,6.61-3.46,5.89-8.69,9.93-14.76,12.93-7.85,3.89-16.25,5.1-24.89,5.14a47.29,47.29,0,0,1-21.58-4.6,32,32,0,0,1-9.91-7.45c-7.79-8.76-7.5-20.58.72-29a35,35,0,0,1,16.57-9.14A4.52,4.52,0,0,0,638.92,119.45Z"/><path class="cls-2" d="M307.54,82.26c2.66,3.52,5.11,6.85,7.65,10.11,5.66,7.24,11.38,14.44,17.07,21.66.69.88,1.33,1.8,2,2.67a1.64,1.64,0,0,1-.05,2.36c-.52.61-1,1.26-1.48,1.88-8.2,10.44-16.73,20.62-25.1,30.91l-2.23,2.75c.41.76,1,.51,1.52.51,4.79-.05,9.59-.14,14.39-.18,7.19-.06,14.39,0,21.59-.15,5.72-.1,10.59-2.17,14.13-6.85a17.15,17.15,0,0,0,3-6.49c.19-.82.35-1.5,1.35-1.72,1.67-.38,2.27,0,2.06,1.73-.64,5.48-1.35,10.94-2.09,16.4-.37,2.77-.86,5.53-1.28,8.29-.3,2.05-.28,2.13-2.25,2.23-3,.15-5.92.25-8.87.26q-26.4,0-52.78,0c-2.08,0-4.16,0-6.24,0-1,0-1.44-.27-1.48-1.34a4.83,4.83,0,0,1,1.29-3.47c6.27-7.47,12.5-15,18.77-22.45q6.87-8.18,13.85-16.25a1.64,1.64,0,0,0,.09-2.55q-15.63-20.2-31.17-40.47c-.78-1-1.47-2.09-2.25-3.1a2.14,2.14,0,0,1-.49-2.21c.37-.8,1.26-.52,1.95-.53q21.22-.09,42.46-.17c6.72,0,13.44-.1,20.15.09,4.78.13,4-.74,4.56,4.21.65,5.64.89,11.31,1.28,17,.11,1.56-.18,1.82-1.68,1.81-.86,0-1.13-.37-1.09-1.16a22.24,22.24,0,0,0-.78-5.9,13.28,13.28,0,0,0-4.82-7.51,8.23,8.23,0,0,0-5.47-2c-11.44-.1-22.87-.36-34.3-.55A9,9,0,0,0,307.54,82.26Z"/><path class="cls-2" d="M99.37,81.15c3.12,3.33,5.37,6.94,5.87,11.39a6.8,6.8,0,0,1-.42,4c-.68-.92-.46-1.77-.71-2.46a21.3,21.3,0,0,0-9.3-11.21,2.58,2.58,0,0,0-2-.37c-1,.23-2,.36-3.35.61a11.47,11.47,0,0,0,3.11,1.75,15.27,15.27,0,0,1,4.15,2.81c.39.37.61.82.25,1.26a.87.87,0,0,1-1.11,0,28.62,28.62,0,0,0-6.29-2.26A73.27,73.27,0,0,0,82,85.27c-1.55-.29-2.82.45-4.08,1.11A9.74,9.74,0,0,0,74.4,89c2.78.68,5.4,1.28,8,2a80.64,80.64,0,0,1,16.25,6.33c.67.35,2.06.6,1.52,1.66-.43.85-1.43-.06-2.13-.29A210.55,210.55,0,0,0,73.2,92.52c-1.52-.31-1.8-.06-2,1.5A11.19,11.19,0,0,0,71,95.94c.06,2.35.07,2.39,2.39,3.16a93.51,93.51,0,0,0,19.3,4.59c.16,0,.32,0,.48,0,.59.09,1.2.34,1.14,1s-.65.64-1.15.66a49.8,49.8,0,0,1-7.43-.12,77.22,77.22,0,0,1-12-2.28c1.25,2.53,3.36,4,5.15,6.08-1.92.34-3.65.23-5.35.43-3.81.45-7.58,1.13-11.32,2a2.45,2.45,0,0,1-2.63-.47,39.77,39.77,0,0,1-6.95-8.82,11.21,11.21,0,0,1-.92-8.36,21.22,21.22,0,0,1,8.51-12.1,39.07,39.07,0,0,1,18.36-7c5.1-.68,10.22-.39,15.33-.43a39.52,39.52,0,0,0,10.65-1.49,17.51,17.51,0,0,0,8.79-5.09c.32-.36.62-.82,1.18-.52s.46,1,.21,1.47a21.92,21.92,0,0,1-5.84,6.9A34.66,34.66,0,0,1,99.37,81.15Z"/><path class="cls-2" d="M54.14,129.59a132.76,132.76,0,0,0,44.24,7.67c.27-.89-.3-1.21-.65-1.59a36,36,0,0,0-6.93-5.87,77.39,77.39,0,0,0-13.71-7.31,40,40,0,0,1-7.94-4.34,3.08,3.08,0,0,1,2-.69c5.26-.22,10.47-1.27,15.77-1.07a3.26,3.26,0,0,1,2.37.85,67,67,0,0,1,12.83,16,25,25,0,0,1,3.21,13.8,18.73,18.73,0,0,1-2.79,8.58C98.9,161.74,93.41,165.6,87,168.2a63.11,63.11,0,0,1-20.56,4.19,32.24,32.24,0,0,0-5.71.58A13.73,13.73,0,0,0,52,178.84c0,.07-.07.15-.11.21-.41.58-.72,1.4-1.64,1-.7-.27-.67-1-.66-1.65a18.19,18.19,0,0,1,1.1-6.34A19.8,19.8,0,0,1,59.07,162a25.32,25.32,0,0,1,16.53-3.57c5.78.72,11.49.39,16.89-2.13a16.06,16.06,0,0,0,4.45-2.88c-8.24-.91-16.2-1.39-23.35-5.87.85-.82,1.5-.44,2-.34a161.68,161.68,0,0,0,22.17,2.13c2.78.12,3-.12,3.51-2.77.05-.23.07-.47.1-.71.55-4.4.37-4.39-3.92-4.54a119.24,119.24,0,0,1-25.83-3.5,69.4,69.4,0,0,1-14.44-5C56.05,132.14,54.76,131.6,54.14,129.59Z"/><path class="cls-2" d="M54.42,141.25c-2.31.57-3.91-.66-5.43-1.68-3.05-2.06-4.19-5.19-3.93-8.76.41-5.77,3.29-10.26,7.71-13.81,4.26-3.43,9.35-4.71,14.64-5.4A152.11,152.11,0,0,1,88,110.2a21.49,21.49,0,0,0,12-3.42,21,21,0,0,0,3.77-3.59,3.47,3.47,0,0,1-.74,3,17.63,17.63,0,0,1-13.14,8.26,62.68,62.68,0,0,1-10.76.69c-5.1-.19-10,.93-14.93,1.77a20.5,20.5,0,0,0-7.85,3.25A84.67,84.67,0,0,0,79,126.24a2.47,2.47,0,0,1-2.52,1,62.64,62.64,0,0,1-11.44-1A50.19,50.19,0,0,1,54,123.18c-.48-.2-.9-.52-1.53-.1-3.63,2.43-5.34,8.88-3.31,12.73a10.62,10.62,0,0,0,3.36,3.69C53.13,140,54,140.19,54.42,141.25Z"/><path class="cls-2" d="M221.69,135.15c.74.11,1.44.41,1.52,1.38a1.82,1.82,0,0,1-1.56,1.79c-1-.06-1.34-.75-1.44-1.59A1.43,1.43,0,0,1,221.69,135.15Z"/><path class="cls-2" d="M169.78,135.6a2.2,2.2,0,0,1,1,2.21A7.31,7.31,0,0,0,172.1,143a2.8,2.8,0,0,0,2.58,1.43c1.11-.12,1.55-1,1.91-1.93a6.38,6.38,0,0,1,.36-1.12c.22-.37.83-.58,1-.15.58,2.08,2.38,3.26,3.46,4.94,0,.05,0,.16-.05.24-.52.39-1.07.13-1.6,0-2.49-.35-4.53,2.33-3.79,5,.45,1.68,2,2.4,3.78,1.87s1.75-.51,2.28,1.11a5.35,5.35,0,0,0,.17.69,1.72,1.72,0,0,0,2.2.91c.89-.48.78-1.12.4-2a5,5,0,0,1,2.87-7,4.72,4.72,0,0,1,5.07,1.19,5.63,5.63,0,0,1,1.65,5.48,5.25,5.25,0,0,1-1.13,2.35c-.36.42-.68.88-1,1.32a1.53,1.53,0,0,0,.08,2.16,1.32,1.32,0,0,0,2.11.14c2.23-2.5,4.68-2.21,7.6-1.3,3.84,1.19,6.32-1,6.33-5,0-.63,0-1.27,0-1.91a2.09,2.09,0,0,1,1.58-1.89,1.6,1.6,0,0,1,2,.86c.08.13.2.24.3.37,2.09,2.62,2.83,2.7,5.81.6a5.45,5.45,0,0,0,2.75-3.41c-.87,1.23-2.19,1.93-3.24,2.93-1.12.23-2.08,1.21-3.5.77,1.05-2.36,3.09-3.61,5-4.79a4.27,4.27,0,0,0,2.32-4,7.73,7.73,0,0,1,.06-1c.06-.79,0-1.67,1-2s1.21.51,1.75,1.24c1-2.07,2-3.86,1-6a1.62,1.62,0,0,1-.07-1.17,1.47,1.47,0,0,1,1.12-1.12c.55-.13.91.23,1.21.61a2.9,2.9,0,0,1,.43,2.92c-4.35,12.59-12,22.44-23.83,28.83a3.53,3.53,0,0,0-1.22.74c-1.81,2.54-4.81,3.16-7.38,3.44-3.39.37-6.75,1.09-10.17,1.32a48.69,48.69,0,0,1-17.52-1.92,5.62,5.62,0,0,0-2.1-.42c-2.39.25-4.1-1-5.78-2.4a10.74,10.74,0,0,0-4.42-2.28,8.42,8.42,0,0,1-3.77-2c-1.66-1.48-3.38-2.92-5-4.42a6.3,6.3,0,0,1-1.37-1.64,85.33,85.33,0,0,0-7.72-11.48,10.45,10.45,0,0,1-1.93-4.59,80.47,80.47,0,0,0-2.51-9.92c-.87-3-1.52-6.24-.4-9.41a6.92,6.92,0,0,0,.29-4c-1-3.91.42-7.41,1.67-10.93.37-1,1-2,1.31-3.07a1.54,1.54,0,0,1,.43-.84c2.6-2.14,3.48-5.47,5.56-8,1.07-1.29,2.08-2.64,3.15-3.93a12.61,12.61,0,0,0,2-3.12c1-2.18,3.13-3.37,5.34-4.15a6.31,6.31,0,0,0,3.4-2.44,7.9,7.9,0,0,1,3.44-2.53c3.26-1.5,6.57-2.89,9.85-4.34,3-1.3,5.89-.83,8.88-.11a27,27,0,0,0,4.9.67,45.32,45.32,0,0,1,19.05,5,6.29,6.29,0,0,0,1.82.48,1.82,1.82,0,0,1,1.7,1.64c-.24.08-.41.2-.53.16-.64-.22-1.3-.84-1.95-.15s-.18,1.31.29,1.9c.21.26.32.55,0,.82a.65.65,0,0,1-.86-.06,2.35,2.35,0,0,1-1.19-2c0-1.53-1-2-2.2-2.44-.71-.24-1.47-.3-1.79.63-.39,1.12-1.08.82-1.9.54a27.06,27.06,0,0,0-7.69-1.67,14.63,14.63,0,0,0-2.39.06c-1.52.21-1.68.42-1.27,2,.23.88,0,1.18-.84,1.24-1.55-1.26-3.12-.78-4.7-.07-.34.23-1.09.26-.7.89s.78.21,1.11-.17a7.39,7.39,0,0,1,3.79-.17c1.69.74,3.36,1.47,3.77,3.59a2.82,2.82,0,0,1-1.17,3.31,5.77,5.77,0,0,1-7.91-1.84,3.39,3.39,0,0,1,.15-3.61c.17-.28.27-.59-.08-.82s-.59,0-.76.28c-1.94,2.73-.87,6.23,2.64,7.39.51.17,1.13-.06,1.57.4.1.12.16.27.36.59-1.62.13-1.81,1.18-1.59,2.45-.92.26-1.24-.22-1.48-1a5.11,5.11,0,0,0-5.43-4,7.51,7.51,0,0,0-7,7.13,5,5,0,0,0,2.92,5c.84.91,2,.46,2.94.61.42.06.83.23.81.7a.71.71,0,0,1-.84.66,3.47,3.47,0,0,0-3.55,1.93c-1.1,1.7-1.05,2.54.29,4.21a2,2,0,0,1,.33,1.58,4,4,0,0,0-4.6.19c-.54.36-.82.08-1.21-.25-3.69-3.12-6.91-3.46-10.42-1.13a9.48,9.48,0,0,0-3.92,10.27,6,6,0,0,0,2.35,3.5c.28.19.62.25.84-.07a.87.87,0,0,0,.13-.65c-.26-.58-.62-1.12-.88-1.7A7.93,7.93,0,0,1,155.42,110a6,6,0,0,1,5.84,1.22c.71.55,1,1.13.32,2a5.79,5.79,0,0,0-.9,1.68c-.74,2-.21,3.06,1.89,3.79,1.2.42,1.26.62.49,1.61-.1.13-.23.23-.33.36-1.79,2.2-1.5,3.34,1.13,4.39.17.53.46,1.08-.27,1.44s-1.32.59-1.93,1a5.75,5.75,0,0,0-2.84,5.87c.78,3.86,5.35,5.69,9,3.55A8.58,8.58,0,0,1,169.78,135.6ZM159,158a11.12,11.12,0,0,0-1.42-4.59,12.88,12.88,0,0,0-6-5.57,2.94,2.94,0,0,0-3.32.58c-1.06.94-.67,2.06-.14,3.06a20.47,20.47,0,0,0,8.92,8.67c1,.54,1.48,0,1.76-.82A9.77,9.77,0,0,0,159,158Zm-2-73.8a5.94,5.94,0,0,0-4.89,2.46c-1.26,2.06-.3,4.08,2.08,4.32a5.26,5.26,0,0,0,5-2.22,2.67,2.67,0,0,0,.32-3.1A2.41,2.41,0,0,0,156.94,84.22Zm6.53.35a4.34,4.34,0,0,0,3.23-.09,22.37,22.37,0,0,0,7.65-4.27c.6-.51,1.18-1.06,1.74-1.62.27-.28.54-.62.28-1a1,1,0,0,0-1-.42,6,6,0,0,0-.94.16,20.87,20.87,0,0,0-9.57,5A3.2,3.2,0,0,0,163.47,84.57Zm21.3,78.92a9.71,9.71,0,0,0,4.26-.78c1.62-.71,1.75-1.14,1.07-2.74a2,2,0,0,0-1.84-1.24,7.81,7.81,0,0,0-4.59.94c-1.25.68-2.85,1-3.29,2.73C181.6,163.49,183.09,163.57,184.77,163.49Zm14.77-2.44a12.19,12.19,0,0,0-7.22,2.7c-.55.43-1.33,1-1,1.71s1.34.68,2.1.59a13.54,13.54,0,0,0,6.2-2.26,9.91,9.91,0,0,0,1.27-1.06c.35-.33.66-.73.44-1.25s-.65-.39-1-.43S199.77,161.05,199.54,161.05ZM147.7,104.57l-.13-.82a2,2,0,0,0-1.12-1.71c-.89-.34-1.54.23-2.12.75a4.4,4.4,0,0,0-.5,5.1,1.46,1.46,0,0,0,2.43.25A5.24,5.24,0,0,0,147.7,104.57Zm34.75-16.36a8,8,0,0,0,1.19-.18,2.32,2.32,0,0,0,1.68-1.83c.17-.81-.46-1.33-1-1.78a4.19,4.19,0,0,0-4.48-.57c-1.52.58-1.77,2-.66,3.24A4.12,4.12,0,0,0,182.45,88.21Zm-10,63.45c-1.72,2.22-3.55,3.45-6.06,1.93a4.26,4.26,0,0,1-2-4.34c.6-2.5,2.43-3.29,5.29-3.13-3.18-1.1-5.43,0-6.16,2.69a5.3,5.3,0,0,0,4.25,6.42A3.82,3.82,0,0,0,172.4,151.66Zm-17.64-14.23c-1.71,0-2.66.88-2.63,2.35a2.64,2.64,0,0,0,2.78,2.61,2.43,2.43,0,0,0,2.67-2.4A2.63,2.63,0,0,0,154.76,137.43Zm32,13.82a2.63,2.63,0,0,0,2.49,2.9,2.36,2.36,0,0,0,2.53-2,3.06,3.06,0,0,0-2.67-3.12A2.46,2.46,0,0,0,186.76,151.25Zm-48.34-16.16c0,3.39,2.05,6.79,4.53,7.79A10.85,10.85,0,0,0,138.42,135.09Zm27.22-34a1.32,1.32,0,0,0-1.49-1.44,3.6,3.6,0,0,0-2.72,2.67,1.21,1.21,0,0,0,1.11,1.52A3.24,3.24,0,0,0,165.64,101.07ZM143,132.46c1.26,0,2.15-.7,2.14-1.71a2.08,2.08,0,0,0-2.28-1.92c-1.25,0-2.26.67-2.26,1.53A2.28,2.28,0,0,0,143,132.46Zm11.63-35.23c2,1,2.41,1.9,1.72,3a2.34,2.34,0,0,1-1.32,1c-1.2.41-1.07-1.29-2-1.45a1.68,1.68,0,0,0,.77,1.76,2.19,2.19,0,0,0,1.6.33,2.88,2.88,0,0,0,2.2-3.23C157.41,97.42,157,97.18,154.67,97.23Z"/><path class="cls-2" d="M165.67,127.28c2.22.65,3.82,1.85,4.16,4.33A7.43,7.43,0,0,1,169,135c-.37.3-.71.62-1.1.89a5.4,5.4,0,0,1-7-.54,4.25,4.25,0,0,1-.13-6.18A5.66,5.66,0,0,1,165.67,127.28Zm-1,2.21c-1.88-.06-3,.67-3.3,2.08-.38,2.06,1.35,3.47,3.7,3A2.94,2.94,0,0,0,167.7,132C167.66,130.68,166.25,129.54,164.63,129.49Z"/><path class="cls-2" d="M177.84,94.32c-1.22,4.66-3.45,6.33-8.35,6.24-.27-.16-.54-.32-.8-.49a4.69,4.69,0,0,1-1.95-6.35,7,7,0,0,1,5.22-4.1c2.78-.55,5,1,5.36,3.12A10.42,10.42,0,0,0,177.84,94.32ZM173.33,91a5.63,5.63,0,0,0-5.19,5.31,2.72,2.72,0,0,0,3.46,2.64,5.58,5.58,0,0,0,4.48-4.46A2.69,2.69,0,0,0,173.33,91Z"/><path class="cls-2" d="M218,141.55a4.58,4.58,0,0,1-4.7,4.64,4.8,4.8,0,0,1,.17-9.56C215.54,136.65,218.39,139.08,218,141.55Zm-2,.1c.05-2-1-3.37-2.51-3.39s-2.58,1.33-2.6,3.11a3.11,3.11,0,0,0,2.58,3.22C214.82,144.63,216,143.27,216,141.65Z"/><path class="cls-2" d="M171,121.25a4.61,4.61,0,0,1-.29,1.87,3.58,3.58,0,0,1-4.12,2.44c-1.64-.4-2.59-2.17-2.25-4.19a8.26,8.26,0,0,1,.4-1.37,3.32,3.32,0,0,1,3.59-2.46C170,117.81,171,119.22,171,121.25Zm-1.68-.1c-.1-.75-.28-1.38-.92-1.68s-1.22.07-1.68.53a3.79,3.79,0,0,0-.75.91,2.24,2.24,0,0,0,.77,2.73c.77.38,1.75-.12,2.23-1.22A7.43,7.43,0,0,0,169.31,121.15Z"/><path class="cls-2" d="M244.21,119.29q0-25.12,0-50.25a3.1,3.1,0,0,0-1.43-3c-2.16-1.51-2-3.6.18-5.17a12.63,12.63,0,0,1,5.37-2,36,36,0,0,1,14.25.5A9.5,9.5,0,0,1,266.36,61c2,1.59,2.22,3.6.13,5-1.61,1.07-1.6,2.28-1.62,3.91-.08,12.24-.26,24.47-.42,36.71q-.12,9.8-.26,19.6-.24,17.8-.47,35.6c0,2.58.12,5.15.11,7.73,0,5.75-3.63,9.15-8.2,9.93-4.16.7-9.85-1.38-11.13-7.25a17.62,17.62,0,0,1-.41-3.83q0-24.57,0-49.14ZM246.56,68a8,8,0,0,0-.15,1.05c-.09,17.65-.23,35.31-.23,53,0,16,.13,32,.26,48a7.34,7.34,0,0,0,7.48,7.52,7.5,7.5,0,0,0,7.91-7.44c.09-2,.19-4,.21-6.06.14-13.52.24-27,.38-40.55.19-17.39-.05-34.77.43-52.15a8.27,8.27,0,0,0-.18-3.14c-4,.31-4,.31-5.48-.81,1.53-.46,3-.89,4.5-1.35s3.83-.67,3.79-2.5c0-1.54-2.26-2-3.73-2.35A28.12,28.12,0,0,0,246,61.6a8.87,8.87,0,0,0-2.17,1.15c-.81.54-.73,1.22,0,1.81a4.08,4.08,0,0,0,1.18.68,19.89,19.89,0,0,0,3.85,1.4c.51.08,1.11.35.95,1.08s-.7.48-1.13.47C248,68.17,247.36,68.07,246.56,68Z"/><path class="cls-2" d="M264.44,46.75a8.28,8.28,0,0,1-8.61,8c-4.81-.18-8.31-3.74-8.16-8.33a8.37,8.37,0,0,1,8.61-8C261.15,38.64,264.66,42.22,264.44,46.75Z"/><path class="cls-2" d="M269.61,23.25a5.16,5.16,0,0,0-5.32,4.93,5,5,0,0,0,5,5.16,5.13,5.13,0,0,0,5.33-4.93A5,5,0,0,0,269.61,23.25Zm-.24,9a3.9,3.9,0,0,1-3.95-4,4,4,0,0,1,4.16-3.85,3.91,3.91,0,0,1,4,4A4,4,0,0,1,269.37,32.23Z"/><path class="cls-2" d="M260.72,97.12c.23,19-.33,37.73-.44,56.5,0,5.15.1,10.31-.31,15.45a13.36,13.36,0,0,1-.32,2.45c-.81,3.1-3,4.73-6,4.47a6.72,6.72,0,0,1-5.48-5.44,7.67,7.67,0,0,1,0-.83c0-16.1,0-32.21,0-48.31a13.79,13.79,0,0,1,3.42-9c1.86-2.27,4-4.31,5.48-6.9,1.09-1.92,2.21-3.8,2.39-6.1A2.38,2.38,0,0,1,260.72,97.12Z"/><path class="cls-2" d="M417.27,110.16c-.6.64-.36,1.4-.37,2.08-.06,9.19-.14,18.39-.55,27.58-.07,1.67-.08,1.75-1.73,1.83-1.35.07-2.71.09-4.07.08-1,0-1.59-.37-1.59-1.57,0-14.39-.43-28.79-.24-43.18,0-2.26.26-2.5,2.46-2.52,1.36,0,2.72.15,4.08.14a2.31,2.31,0,0,1,1.91,1.25c1.24,1.66,2.49,3.33,3.67,5q7,10.14,14,20.31a8.44,8.44,0,0,0,2,2.17c0-.68,0-1.35,0-2q-.19-11.76-.4-23.51c0-.56,0-1.12,0-1.68.1-1.51.34-1.77,1.89-1.81s3.2,0,4.8,0c1,0,1.49.29,1.51,1.34,0,1.6.23,3.19.22,4.79q-.17,19.67-.39,39.34c0,1.87-.08,1.91-1.85,2-4.66.14-4.67.15-7.2-3.76q-8.66-13.36-17.31-26.77C417.92,110.84,417.74,110.38,417.27,110.16Z"/><path class="cls-2" d="M401.8,90.45a21.35,21.35,0,0,0-3.56-.15c-.48,0-1,0-1.43-.1a.84.84,0,0,1-.77-1c0-.55.29-.93.86-.94,2.31,0,4.63-.11,6.94,0,1.12.05,1.56,1.14,1,2.37-.86,2-1.8,3.9-2.72,5.85-.64,1.37-1.3,2.73-1.93,4.1-.27.59-.53,1.21-1.23,1.35s-1.33.36-1.82-.12,0-1,.19-1.53c1.18-2.44,2.38-4.87,3.53-7.32A5,5,0,0,0,401.8,90.45Z"/><path class="cls-2" d="M431.67,151.09a6.55,6.55,0,0,1,.34-2.86,2.37,2.37,0,0,1,4.5.22,7.17,7.17,0,0,1-.23,4.9,2.16,2.16,0,0,1-2.26,1.44,2.35,2.35,0,0,1-2.2-1.87A8.63,8.63,0,0,1,431.67,151.09Zm3.38-.37c0-.54,0-1.1,0-1.64a.92.92,0,0,0-.89-.91.8.8,0,0,0-.84.68,9.16,9.16,0,0,0-.06,3.5c.05.41.45.61.89.61a.79.79,0,0,0,.9-.82C435.07,151.67,435.05,151.2,435.05,150.72Z"/><path class="cls-2" d="M419.86,146.22c.69,0,.78.39.79.8,0,1,0,1.92,0,2.88a8.34,8.34,0,0,0,.09,1.58c.19.18.81.16,1,.36a.61.61,0,0,1-.15.94c-.24.11-.87.18-1,.41s0,.83,0,1.07c-.17.65-1.06.78-1.24.15-.12-.44,0-.93-.25-1.13s-1-.16-1.64-.1c-1.16.14-1.5-.6-1.19-1.47a27.55,27.55,0,0,1,3.13-5.34C419.42,146.23,419.77,146.24,419.86,146.22Zm-.73,3.28c-.53.83-1.15,1.78-1.06,1.95s1.14.13,1.18.13C419.55,151.57,419.22,150,419.13,149.5Z"/><path class="cls-2" d="M430.54,150.9a16.08,16.08,0,0,1-.28,2.18,2.31,2.31,0,0,1-2.49,1.74,2.11,2.11,0,0,1-2.18-1.8,12.05,12.05,0,0,1,0-4,2.46,2.46,0,0,1,2.49-2.11,2.29,2.29,0,0,1,2.37,2.18A17.36,17.36,0,0,1,430.54,150.9Zm-3.61-.21a15.14,15.14,0,0,0,0,1.65,1,1,0,0,0,1.07,1,1.05,1.05,0,0,0,1.08-1,7,7,0,0,0,0-1.65c-.09-.93.47-2.19-1-2.54C427.28,147.93,426.91,148.73,426.93,150.69Z"/><path class="cls-2" d="M438.9,154.59c.8-2.11,1.52-4,2.24-5.94-.84-.47-1.66-.17-2.43-.29-.43-.07-.76-.23-.79-.72a.79.79,0,0,1,.65-.87,36.3,36.3,0,0,1,4,0c.59,0,.74.66.57,1.11-.82,2.23-1.66,4.45-2.61,6.63C440.32,155.07,439.61,154.85,438.9,154.59Z"/><path class="cls-2" d="M413.86,150.57c0,1,0,2.08,0,3.12a.86.86,0,0,1-.86.94c-.71,0-1-.36-1-1,0-1,0-2.08,0-3.12,0-.38.08-.82-.38-1s-1.26-.06-1.15-.9c.1-.65.81-.71,1.29-.93s.79-1.47,1.69-.93c.73.43.3,1.31.36,2s0,1.28,0,1.92Z"/><path class="cls-2" d="M423.86,154.08a.67.67,0,0,1-.83.52c-.49-.06-.62-.42-.54-.85a.58.58,0,0,1,.68-.49A.66.66,0,0,1,423.86,154.08Z"/><path class="cls-2" d="M475.82,73.31c-1.19,0-2.39-.06-3.59-.06l-92.61-.11c-1.63,0-1.67,0-1.69,1.74-.06,6-.12,12-.13,18q0,37.3,0,74.62c0,3.71,0,3.71,3.68,3.71h46.06c0,.1,48.22.3,48.46.28,1.57-.17,1.72-.33,1.79-1.89,0-.32.47-93.16.48-93.8C478.26,73.5,478.19,73.42,475.82,73.31Zm-6.7,2.57a4.75,4.75,0,0,1,4.28,6.85L466.14,77A4.73,4.73,0,0,1,469.12,75.88Zm-4.28,2.7,7.26,5.78a4.75,4.75,0,0,1-7.76-3.7A4.69,4.69,0,0,1,464.84,78.58Zm-74.2,2.08a4.78,4.78,0,0,1-4.77,4.77,4.72,4.72,0,0,1-3-1.07l7.26-5.78A4.82,4.82,0,0,1,390.64,80.66Zm-4.77-4.78a4.75,4.75,0,0,1,3,1.08l-7.26,5.77a4.68,4.68,0,0,1-.5-2.07A4.78,4.78,0,0,1,385.87,75.88Zm-4.78,87a4.75,4.75,0,0,1,7.76-3.7L381.59,165A4.68,4.68,0,0,1,381.09,162.91Zm4.78,4.77a4.72,4.72,0,0,1-3-1.07l7.26-5.78a4.75,4.75,0,0,1-4.28,6.85Zm73.07-3.26c-9.83-.06-19.67,0-29.5,0v0c-9.68,0-19.35,0-29,0a5.25,5.25,0,0,1-4-1.53c-3.3-3.15-6.69-6.2-10.09-9.23a3.46,3.46,0,0,1-1.34-2.85q-.09-26.5-.3-53a4.23,4.23,0,0,1,1.25-3.18c3.59-3.86,7.16-7.75,10.64-11.71a4.67,4.67,0,0,1,3.9-1.76c11.51.07,23,.06,34.54,0,6.88,0,13.76-.06,20.63-.2a4.13,4.13,0,0,1,3.51,1.55c3.33,3.78,6.73,7.49,10.17,11.17a4.27,4.27,0,0,1,1.22,3.19q-.06,27.23,0,54.45a4.7,4.7,0,0,1-1.25,3.44q-3.63,4-7.06,8.16A3.74,3.74,0,0,1,458.94,164.42Zm11.18,4.26a4.78,4.78,0,0,1-4.78-4.77,4.69,4.69,0,0,1,.5-2.08l7.26,5.78A4.74,4.74,0,0,1,470.12,168.68Zm4.28-2.7-7.26-5.77a4.73,4.73,0,0,1,3-1.08A4.75,4.75,0,0,1,474.4,166Z"/><path class="cls-2" d="M537,169.68c3.52,1.94,7,2.24,10.52-.11,2.59-1.75,2.73-1.78,4.05,1,4,8.51,11.13,12,20,12,7,0,14.05-.64,21.07-1.06a24.61,24.61,0,0,0,4-.73,1.69,1.69,0,0,1,2.29,1.42,39.45,39.45,0,0,1,.58,13c-.15,1.39-1,1.93-2.35,1.9-2.68-.07-5.37-.11-8.06-.14L523,196.17c-.21,0-.41,0-.62,0-5.9-.34-5.76,1.12-5.17-5.86a42.49,42.49,0,0,1,10.7-24.59c.34-.39.74-.72,1.1-1.09,1.09-1.1,2.06-1.31,3,.25C532.32,165.46,535.56,169,537,169.68Zm-7.25-2.92c-.66.81-1.15,1.47-1.7,2.09-3.8,4.3-5.68,9.53-7.2,14.92a34.31,34.31,0,0,0-1.31,8.56c0,1.09.3,1.79,1.58,1.69.71-.06,1.44,0,2.17,0,13.12.13,26.25.06,39.37.4,10.74.27,21.49.37,32.24.53,2.38,0,2.35,0,2.61-2.26a38.42,38.42,0,0,0-.38-8c-.12-1.19-.73-1.53-1.89-1.4-2,.24-4.12.38-6.18.5-5.56.35-11.13.94-16.7.92-9.83,0-18-3.34-22.54-12.85,0-.09-.15-.14-.22-.21C541.28,175.82,535.67,173.5,529.79,166.76Z"/><g class="cls-3"><line class="cls-4" x1="464.78" y1="199.74" x2="542.1" y2="118.18"/><line class="cls-4" x1="473.75" y1="199.74" x2="551.07" y2="118.18"/><line class="cls-4" x1="482.73" y1="199.74" x2="560.05" y2="118.18"/><line class="cls-4" x1="491.7" y1="199.74" x2="569.02" y2="118.18"/><rect class="cls-2" x="483.14" y="157.94" width="112.38" height="2.03" transform="translate(52.98 441.1) rotate(-46.54)"/><rect class="cls-2" x="492.12" y="157.94" width="112.38" height="2.03" transform="translate(55.78 447.62) rotate(-46.54)"/><rect class="cls-2" x="501.09" y="157.94" width="112.38" height="2.03" transform="translate(58.58 454.13) rotate(-46.54)"/><rect class="cls-2" x="510.07" y="157.94" width="112.38" height="2.03" transform="translate(61.38 460.65) rotate(-46.54)"/><rect class="cls-2" x="519.04" y="157.94" width="112.38" height="2.03" transform="translate(64.18 467.16) rotate(-46.54)"/><rect class="cls-2" x="528.02" y="157.94" width="112.38" height="2.03" transform="translate(66.99 473.68) rotate(-46.54)"/><rect class="cls-2" x="536.99" y="157.96" width="112.38" height="2" transform="translate(69.69 480.03) rotate(-46.52)"/><rect class="cls-2" x="545.97" y="157.94" width="112.38" height="2.03" transform="translate(72.59 486.71) rotate(-46.54)"/><rect class="cls-2" x="554.94" y="157.94" width="112.38" height="2.03" transform="translate(75.39 493.22) rotate(-46.54)"/><rect class="cls-2" x="563.92" y="157.94" width="112.38" height="2.03" transform="translate(78.19 499.73) rotate(-46.54)"/><rect class="cls-2" x="572.89" y="157.94" width="112.38" height="2.03" transform="translate(80.99 506.25) rotate(-46.54)"/><line class="cls-4" x1="599.4" y1="199.74" x2="676.72" y2="118.18"/><line class="cls-4" x1="608.37" y1="199.74" x2="685.69" y2="118.18"/><line class="cls-4" x1="617.35" y1="199.74" x2="694.67" y2="118.18"/><line class="cls-4" x1="626.32" y1="199.74" x2="703.64" y2="118.18"/><line class="cls-4" x1="635.3" y1="199.74" x2="712.62" y2="118.18"/><line class="cls-4" x1="644.27" y1="199.74" x2="721.59" y2="118.18"/><line class="cls-4" x1="653.24" y1="199.74" x2="730.56" y2="118.18"/></g><path class="cls-1" d="M595.27,183.26c-2.06.24-4.13.38-6.19.51-5.59.35-11.17,1-16.75.94-9.87,0-18.07-3.43-22.62-13.18,0-.09-.14-.15-.21-.22-8.39,4.3-14,1.92-19.91-5-.66.84-1.16,1.52-1.7,2.15-3.82,4.41-5.7,9.78-7.22,15.31a35.12,35.12,0,0,0-1.32,8.77c0,1.13.29,1.84,1.58,1.73.72-.06,1.45,0,2.17,0,13.17.13,26.33.06,39.49.41,10.78.28,21.56.38,32.34.54,2.39,0,2.36,0,2.62-2.31a39.85,39.85,0,0,0-.39-8.24C597.05,183.46,596.44,183.12,595.27,183.26Z"/><path class="cls-2" d="M579.66,109.11c1-.35,2-.76,2.88.07s2,3.72,1.31,4.46c-1.13,1.22-.56,2.2-.05,3.27.7,1.49.4,2.46-1.2,3.13-1.89.79-3.68,1.81-5.55,2.67s-2,.89-3-1c-.46-.89-.73-1.75-2.1-1.86-1-.08-3.23-4.38-3-5.39.31-1.35,1.88-1.11,2.58-2a14.41,14.41,0,0,0,4.23-1.85C576.28,109.92,579.05,109.33,579.66,109.11Zm-3.3,11.66c1.44-.68,2.82-1.38,4.24-2,.81-.34,1.15-.77.85-1.65-.47-1.41-1.45-2.79.23-4.19.4-.34-.1-1.36-.58-1.9s-1,0-1.38.2c-2.81,1.27-5.61,2.57-8.38,3.84.15,1,.57,2.25,1.13,2.19C575,117,575,119.37,576.36,120.77Z"/><path class="cls-2" d="M600.7,137.28a8.13,8.13,0,0,0-3,.74q-10.79,4.69-21.55,9.45c-1.9.84-1.91,1-1,3l.36.85c.9,2.07.9,2.07-1.77,3.11l-4.46-10.8c1.6.4,2.55.89,3.75.33,9.54-4.44,19.13-8.8,28.71-13.15,1.11-.51,1.7-1,1-2.32a48.08,48.08,0,0,1-2.24-5.1c-.58-1.54-1.33-1.72-2.82-1-9.37,4.32-18.78,8.55-28.18,12.82-1.13.51-2.44.87-1.78,2.62.17.46-.2.73-.6.93a.68.68,0,0,1-1-.34c-.63-1.56-1.78-1.58-3.05-1-2.74,1.21-5.45,2.48-8.16,3.75a1.44,1.44,0,0,0-.78,2.24c1.08,2.23,2.07,4.5,3,6.78a19.11,19.11,0,0,1,1.84,5.1c-2.27,1-4.41.11-6.54.18a4,4,0,0,1-3.68-1.7,7.71,7.71,0,0,0-7.06-3.14,5.35,5.35,0,0,1-3.89-1.36c-14-10.22-17.07-18.19-16.81-29.41.19-8.76,5.6-19.18,13.79-22,1.42-.49,1.87-1.45,3.46-1a20.19,20.19,0,0,0,17.44-2.92c.42-.28.86-.53,1.53-.94,2,4.57,4,9,5.84,13.45a9.49,9.49,0,0,0,2.94,4.23c.29.47,1.9.74,1.9.74a14,14,0,0,0,7.38-1.43c.72-.53,3.09-2,3.51-2.51,2.72-3,3.05-5.06,1.39-8.73-3.48-7.72-6.87-15.48-10.34-23.21-4.7-10.45-9.46-20.89-14.15-31.35-.89-2-2.15-3.66-4.25-4.18a3.41,3.41,0,0,1-2.53-2.36c-1.15-2.66-2.38-5.27-3.57-7.91-2.24-5-3.89-5.55-8.8-2.9a10,10,0,0,0-1.8,1.21c-1.77,1.5-1.94,2.43-1,4.61,1.47,3.41,2.91,6.84,4.42,10.24.48,1.07.87,1.94.08,3.14-1.1,1.69-.83,3.5.09,5.3s1.67,3.75,2.48,5.63a8.47,8.47,0,0,1-2.77.93,19.78,19.78,0,0,0-14.68,17.3,7.85,7.85,0,0,1-2,4.64C516.07,86,508.49,93.7,506.1,101.53c-6.83,22.36-3.23,48.71,24,56.49,5.68,1.62,2.34,5.87,8.46,9.78,2.6,1.66,6.74.67,9-1.4a4.49,4.49,0,0,1,3.85-1.21c20.24,1.46,37-5.52,50.52-20.66a7,7,0,0,0,1.94-3.79C604.2,138.51,602.94,137.19,600.7,137.28ZM549.26,43c1.5-.24,2.26.67,2.87,2,2.65,5.94,5.49,11.78,8,17.76C565.25,74.64,571,86.2,576.25,98l.37.84c.9,2,2.16,4,.38,6a9.28,9.28,0,0,1-8,3.32,2.74,2.74,0,0,1-2.33-1.78c-2.32-5-4.62-9.91-7-14.84a2,2,0,0,1,.46-2.24,21.49,21.49,0,0,0,2.44-4.65,19.9,19.9,0,0,0-15.41-26.89c-2.1-.33-3.32-1.05-4-3a29.21,29.21,0,0,0-1.94-4.22,3.28,3.28,0,0,1,.51-4A11.11,11.11,0,0,1,549.26,43Zm-12.9-10a2.65,2.65,0,0,1,.56-3.37c1.27-1.14,2.68-1.95,4.47-1.56.84.18.92,1,1.22,1.66l4.68,10a33.9,33.9,0,0,0-6.42,3.16C539.31,39.45,537.83,36.2,536.36,33Zm8.16,26.7c9.94,0,17,8.82,16.6,17.33.51,9.83-8.41,17.57-17.16,17.48-9.43-.11-17.66-8.09-17.31-17.11S533.21,59.68,544.52,59.65Zm-2.46,104.09a4.12,4.12,0,0,1-4.12-4.09,4.27,4.27,0,0,1,4.33-4.29,4,4,0,0,1,3.93,4.25A4.18,4.18,0,0,1,542.06,163.74ZM568,141.53c-.4-.88.64-1.13,1.17-1.54.34-.26.72-.55.6-1-.51-1.74.79-2.13,1.9-2.63,8.91-4,17.83-8,26.87-12.06,2.54,4.89,2.53,4.86-2,6.92-7.39,3.39-14.75,6.85-22.14,10.23-1.11.51-2.33,1.64-3.51,0-.25-.36-.71-.13-1.12,0C569.2,141.64,568.47,142.57,568,141.53Z"/><path class="cls-2" d="M543.56,64.45a12.77,12.77,0,1,0,13,12.67A12.58,12.58,0,0,0,543.56,64.45Zm.78,19.32a6.72,6.72,0,1,1,0-13.44A7,7,0,0,1,551,77.1,6.76,6.76,0,0,1,544.34,83.77Z"/></g></g></svg>