<svg xmlns="http://www.w3.org/2000/svg" viewBox="0 0 702.82 602.53"><defs><style>.cls-1{fill:#fff;}</style></defs><g id="圖層_2" data-name="圖層 2"><g id="圖層_5" data-name="圖層 5"><polygon class="cls-1" points="176.21 0 528.35 0 702.82 299.29 527.8 602.53 421.54 602.53 402.22 571.86 422.54 536 491.21 536 627.79 299.29 487.59 64.58 472.15 64.58 472.15 200.15 531.26 301.47 387.16 550.26 340 475.26 340.28 351.59 374.74 351.59 374.74 473.17 385.89 490.75 495.88 302.96 441.01 210.87 441.01 64.58 212.93 64.58 76.08 299.29 226.13 538.91 318.74 538.91 179.68 302.44 239.34 200.15 239.34 86.88 267.36 86.88 267.36 205.33 212.59 301.47 389.61 602.53 179.22 602.53 0 299.29 176.21 0"/><path class="cls-1" d="M357.59,243.14c-31.41,0-56.87,24.93-56.87,55.69s25.46,55.7,56.87,55.7,56.87-24.94,56.87-55.7S389,243.14,357.59,243.14Zm0,79.81a24.12,24.12,0,1,1,24.12-24.12A24.11,24.11,0,0,1,357.59,323Z"/></g></g></svg>